<?xml version="1.0" encoding="UTF-8" standalone="no"?>
<!DOCTYPE svg PUBLIC "-//W3C//DTD SVG 1.1//EN" "http://www.w3.org/Graphics/SVG/1.1/DTD/svg11.dtd">
<svg xmlns="http://www.w3.org/2000/svg" version="1.1" viewBox="0 0 494 494">
<g stroke-width="2.00" fill="none" stroke-linecap="butt">
<path stroke="#fde2af" vector-effect="non-scaling-stroke" d="
  M 224.50 103.54
  Q 224.00 106.36 224.00 111.00
  Q 224.00 223.00 224.00 335.55
  A 0.72 0.65 89.6 0 1 223.36 336.27
  L 214.50 336.29"
/>
<path stroke="#87aea4" vector-effect="non-scaling-stroke" d="
  M 214.50 336.29
  Q 214.34 336.17 214.18 336.08
  Q 214.02 336.00 213.81 336.00
  Q 136.91 335.65 60.00 335.71"
/>
<path stroke="#fbe5b5" vector-effect="non-scaling-stroke" d="
  M 60.00 335.71
  Q 56.75 335.63 54.50 333.75
  Q 51.84 331.53 50.60 328.38
  Q 49.75 326.22 49.75 322.00
  Q 49.89 196.28 49.56 70.56
  Q 49.55 65.31 49.21 63.75"
/>
<path stroke="#79884f" vector-effect="non-scaling-stroke" d="
  M 214.79 351.00
  Q 216.28 358.22 222.94 362.31
  Q 232.71 368.31 243.71 368.00"
/>
<path stroke="#82955b" vector-effect="non-scaling-stroke" d="
  M 60.00 335.71
  Q 58.88 335.78 57.76 335.85
  Q 45.85 336.56 42.32 327.10
  Q 41.25 324.26 41.08 318.74
  Q 40.95 314.50 40.96 310.25"
/>
<path stroke="#809a5f" vector-effect="non-scaling-stroke" d="
  M 40.96 310.25
  Q 41.42 246.84 41.00 171.00
  Q 40.82 138.10 41.25 95.00
  Q 41.25 94.52 40.96 93.00"
/>
<path stroke="#849255" vector-effect="non-scaling-stroke" d="
  M 268.75 336.29
  L 269.29 344.25"
/>
<path stroke="#efbc59" vector-effect="non-scaling-stroke" d="
  M 268.71 350.75
  Q 267.08 351.11 266.66 349.67
  Q 266.50 349.12 266.22 348.83
  Q 260.41 342.90 252.00 340.50
  Q 242.06 337.66 232.68 340.22
  Q 227.32 341.69 223.90 343.46
  Q 219.63 345.68 216.61 349.66
  Q 216.42 349.91 216.22 350.54
  Q 215.91 351.49 214.79 351.00"
/>
<path stroke="#849255" vector-effect="non-scaling-stroke" d="
  M 214.79 351.00
  Q 213.71 343.67 214.50 336.29"
/>
<path stroke="#0c634e" vector-effect="non-scaling-stroke" d="
  M 40.96 310.25
  Q 37.58 319.57 41.06 328.61
  Q 41.66 330.16 43.06 331.43
  Q 44.37 332.62 45.67 333.82
  Q 49.41 337.28 54.82 337.78
  A 1.80 1.79 2.3 0 1 56.45 339.54
  Q 56.47 340.97 58.81 341.51
  Q 60.69 341.93 62.60 342.23
  Q 64.31 342.50 66.43 342.46
  Q 71.96 342.36 77.48 342.30
  Q 82.60 342.24 88.51 342.44
  Q 127.71 343.77 153.00 343.25
  Q 172.50 342.85 192.00 343.04
  Q 199.42 343.11 206.83 342.57
  Q 206.91 342.56 208.63 342.20
  Q 210.35 341.83 210.95 343.78
  Q 211.06 344.11 211.27 343.82
  Q 211.65 343.32 211.91 344.17
  Q 212.00 344.45 212.00 344.83
  Q 212.00 348.18 212.38 351.50
  Q 212.70 354.39 214.25 356.58
  Q 218.90 363.17 226.22 366.42
  Q 228.95 367.63 233.13 368.06
  Q 236.69 368.42 240.25 368.75
  Q 242.49 368.96 243.71 368.00"
/>
<path stroke="#778c53" vector-effect="non-scaling-stroke" d="
  M 243.71 368.00
  Q 257.87 367.44 266.69 356.69
  Q 268.21 354.84 268.71 350.75"
/>
<path stroke="#829759" vector-effect="non-scaling-stroke" d="
  M 268.71 350.75
  L 269.29 344.25"
/>
<path stroke="#0c634e" vector-effect="non-scaling-stroke" d="
  M 269.29 344.25
  Q 269.87 344.14 269.93 343.50
  A 0.39 0.38 7.1 0 1 270.37 343.16
  Q 271.06 343.26 271.48 342.94
  A 1.45 0.47 -43.5 0 1 272.30 342.55
  Q 275.89 342.48 279.47 342.19
  Q 281.04 342.06 283.42 342.63
  Q 285.67 343.17 289.00 343.25
  Q 309.16 343.72 321.81 343.44
  Q 331.99 343.21 340.27 343.29
  Q 353.54 343.42 358.73 343.33
  Q 382.09 342.91 405.44 342.61
  Q 410.34 342.54 426.50 341.75
  Q 430.46 341.56 432.24 338.92
  A 1.32 1.11 -75.7 0 1 432.98 338.39
  Q 436.29 337.62 439.69 337.40
  Q 447.43 336.89 451.88 330.64
  Q 455.48 325.57 455.50 319.00
  Q 455.60 284.52 454.44 254.06
  Q 454.41 253.18 453.79 253.00"
/>
<path stroke="#2f856a" vector-effect="non-scaling-stroke" d="
  M 490.71 366.75
  Q 489.67 367.58 487.94 369.94
  Q 480.84 379.59 468.25 379.60
  Q 246.13 379.75 24.00 379.75
  Q 10.38 379.75 3.56 367.94
  Q 3.60 366.98 2.75 367.04"
/>
<path stroke="#fae6b7" vector-effect="non-scaling-stroke" d="
  M 445.75 64.04
  Q 445.67 64.96 445.48 65.86
  Q 445.26 66.86 445.29 67.66
  Q 445.59 75.53 445.47 83.39
  Q 445.25 98.27 445.25 99.11
  Q 445.25 205.10 445.25 311.08
  Q 445.25 312.33 445.49 317.91
  Q 445.65 321.80 445.25 324.75
  Q 444.24 332.16 437.25 335.71"
/>
<path stroke="#87aea4" vector-effect="non-scaling-stroke" d="
  M 437.25 335.71
  Q 432.88 336.05 428.50 336.02
  Q 349.16 335.53 269.81 335.81
  Q 269.60 335.81 268.75 336.29"
/>
<path stroke="#fde2af" vector-effect="non-scaling-stroke" d="
  M 268.75 336.29
  L 259.64 336.27
  A 0.67 0.64 -89.6 0 1 259.00 335.59
  Q 259.39 240.25 259.04 145.75
  Q 258.97 127.08 258.76 108.42
  Q 258.76 107.89 258.39 106.14
  Q 258.14 104.96 258.46 103.75"
/>
<path stroke="#809b61" vector-effect="non-scaling-stroke" d="
  M 453.79 93.00
  L 453.70 93.17
  Q 453.56 93.43 453.56 93.51
  L 453.79 253.00"
/>
<path stroke="#82965d" vector-effect="non-scaling-stroke" d="
  M 453.79 253.00
  Q 453.90 285.98 453.55 318.96
  Q 453.49 324.36 452.14 327.31
  Q 448.19 335.96 437.25 335.71"
/>
<path stroke="#b2dec6" vector-effect="non-scaling-stroke" d="
  M 209.50 153.51
  L 85.07 134.29
  A 0.50 0.50 -86.0 0 0 84.50 134.79
  L 84.50 147.39
  A 0.93 0.93 -85.7 0 0 85.29 148.31
  L 209.06 167.34
  A 0.82 0.82 4.2 0 0 210.00 166.53
  L 210.00 154.10
  A 0.60 0.59 -85.5 0 0 209.50 153.51"
/>
<path stroke="#b2dec6" vector-effect="non-scaling-stroke" d="
  M 209.15 183.45
  L 85.17 165.31
  A 0.58 0.58 4.3 0 0 84.50 165.88
  L 84.55 177.81
  A 1.73 1.70 4.1 0 0 86.04 179.50
  L 209.44 197.37
  A 0.45 0.44 4.0 0 0 209.95 196.94
  L 209.99 184.43
  A 0.99 0.98 4.7 0 0 209.15 183.45"
/>
<path stroke="#b2dec6" vector-effect="non-scaling-stroke" d="
  M 209.16 213.59
  L 85.46 196.24
  A 0.85 0.85 -86.1 0 0 84.50 197.08
  L 84.50 209.58
  A 0.77 0.76 -86.1 0 0 85.16 210.34
  L 209.41 227.52
  A 0.52 0.52 -86.2 0 0 210.00 227.00
  L 210.00 214.56
  A 0.98 0.98 -85.9 0 0 209.16 213.59"
/>
<path stroke="#b2dec6" vector-effect="non-scaling-stroke" d="
  M 209.57 245.33
  L 85.19 229.25
  A 0.47 0.45 4.5 0 0 84.66 229.69
  L 84.56 242.50
  A 0.78 0.74 4.3 0 0 85.24 243.25
  L 209.12 259.11
  A 0.82 0.79 -86.0 0 0 210.02 258.30
  L 210.23 246.12
  A 0.79 0.75 -86.3 0 0 209.57 245.33"
/>
<path stroke="#b2dec6" vector-effect="non-scaling-stroke" d="
  M 85.64 274.10
  L 208.92 288.86
  A 0.95 0.94 3.5 0 0 209.99 287.93
  L 209.95 275.81
  A 0.58 0.58 2.9 0 0 209.44 275.25
  L 85.02 259.94
  A 0.47 0.46 3.3 0 0 84.50 260.40
  L 84.55 272.90
  A 1.24 1.21 3.5 0 0 85.64 274.10"
/>
<path stroke="#b2dec6" vector-effect="non-scaling-stroke" d="
  M 273.73 167.19
  A 0.47 0.46 -3.9 0 0 274.25 167.64
  L 407.45 151.74
  A 0.59 0.59 -2.3 0 0 407.97 151.18
  L 408.25 138.06
  A 0.45 0.44 -2.9 0 0 407.75 137.62
  L 274.30 153.61
  A 0.91 0.88 -4.3 0 0 273.50 154.51
  L 273.73 167.19"
/>
<path stroke="#b2dec6" vector-effect="non-scaling-stroke" d="
  M 407.74 168.93
  L 274.05 184.01
  A 0.56 0.54 -4.5 0 0 273.55 184.57
  L 273.83 196.98
  A 0.94 0.91 -4.1 0 0 274.87 197.85
  L 407.46 182.91
  A 0.90 0.89 86.8 0 0 408.25 182.02
  L 408.25 169.39
  A 0.46 0.46 86.7 0 0 407.74 168.93"
/>
<path stroke="#b2dec6" vector-effect="non-scaling-stroke" d="
  M 408.07 211.56
  Q 408.39 206.54 408.22 200.57
  A 0.86 0.84 -3.7 0 0 407.27 199.75
  L 274.04 214.27
  A 0.61 0.58 -3.8 0 0 273.50 214.86
  L 273.78 227.69
  A 0.47 0.46 -3.4 0 0 274.30 228.14
  L 407.45 213.74
  A 0.59 0.58 88.9 0 0 407.97 213.19
  Q 408.02 212.38 408.07 211.56"
/>
<path stroke="#b2dec6" vector-effect="non-scaling-stroke" d="
  M 408.06 245.80
  Q 408.58 239.15 408.06 233.19
  A 1.06 1.05 -5.3 0 0 406.90 232.23
  L 274.39 245.81
  A 0.96 0.96 88.3 0 0 273.54 246.72
  Q 273.27 253.46 274.00 259.20
  A 0.50 0.50 83.6 0 0 274.55 259.64
  L 407.63 246.24
  A 0.48 0.48 -0.7 0 0 408.06 245.80"
/>
<path stroke="#b2dec6" vector-effect="non-scaling-stroke" d="
  M 277.58 289.51
  Q 338.31 283.81 399.00 277.79
  Q 402.74 277.42 407.58 277.20
  A 0.70 0.69 -1.3 0 0 408.25 276.51
  L 408.25 263.95
  A 0.77 0.76 -2.7 0 0 407.41 263.19
  L 274.07 275.77
  A 0.56 0.56 -1.7 0 0 273.55 276.32
  L 273.50 288.87
  A 0.57 0.56 2.8 0 0 274.01 289.43
  Q 276.18 289.64 277.58 289.51"
/>
</g>
<path fill="#fffefe" d="
  M 224.50 103.54
  Q 224.00 106.36 224.00 111.00
  Q 224.00 223.00 224.00 335.55
  A 0.72 0.65 89.6 0 1 223.36 336.27
  L 214.50 336.29
  Q 214.34 336.17 214.18 336.08
  Q 214.02 336.00 213.81 336.00
  Q 136.91 335.65 60.00 335.71
  Q 56.75 335.63 54.50 333.75
  Q 51.84 331.53 50.60 328.38
  Q 49.75 326.22 49.75 322.00
  Q 49.89 196.28 49.56 70.56
  Q 49.55 65.31 49.21 63.75
  Q 51.97 61.78 53.56 59.81
  Q 56.69 55.97 61.47 57.13
  Q 120.00 71.44 213.44 96.56
  Q 220.34 98.42 223.94 103.26
  A 0.60 0.39 69.1 0 0 224.28 103.51
  L 224.50 103.54
  Z
  M 209.50 153.51
  L 85.07 134.29
  A 0.50 0.50 -86.0 0 0 84.50 134.79
  L 84.50 147.39
  A 0.93 0.93 -85.7 0 0 85.29 148.31
  L 209.06 167.34
  A 0.82 0.82 4.2 0 0 210.00 166.53
  L 210.00 154.10
  A 0.60 0.59 -85.5 0 0 209.50 153.51
  Z
  M 209.15 183.45
  L 85.17 165.31
  A 0.58 0.58 4.3 0 0 84.50 165.88
  L 84.55 177.81
  A 1.73 1.70 4.1 0 0 86.04 179.50
  L 209.44 197.37
  A 0.45 0.44 4.0 0 0 209.95 196.94
  L 209.99 184.43
  A 0.99 0.98 4.7 0 0 209.15 183.45
  Z
  M 209.16 213.59
  L 85.46 196.24
  A 0.85 0.85 -86.1 0 0 84.50 197.08
  L 84.50 209.58
  A 0.77 0.76 -86.1 0 0 85.16 210.34
  L 209.41 227.52
  A 0.52 0.52 -86.2 0 0 210.00 227.00
  L 210.00 214.56
  A 0.98 0.98 -85.9 0 0 209.16 213.59
  Z
  M 209.57 245.33
  L 85.19 229.25
  A 0.47 0.45 4.5 0 0 84.66 229.69
  L 84.56 242.50
  A 0.78 0.74 4.3 0 0 85.24 243.25
  L 209.12 259.11
  A 0.82 0.79 -86.0 0 0 210.02 258.30
  L 210.23 246.12
  A 0.79 0.75 -86.3 0 0 209.57 245.33
  Z
  M 85.64 274.10
  L 208.92 288.86
  A 0.95 0.94 3.5 0 0 209.99 287.93
  L 209.95 275.81
  A 0.58 0.58 2.9 0 0 209.44 275.25
  L 85.02 259.94
  A 0.47 0.46 3.3 0 0 84.50 260.40
  L 84.55 272.90
  A 1.24 1.21 3.5 0 0 85.64 274.10
  Z"
/>
<path fill="#fffefe" d="
  M 445.75 64.04
  Q 445.67 64.96 445.48 65.86
  Q 445.26 66.86 445.29 67.66
  Q 445.59 75.53 445.47 83.39
  Q 445.25 98.27 445.25 99.11
  Q 445.25 205.10 445.25 311.08
  Q 445.25 312.33 445.49 317.91
  Q 445.65 321.80 445.25 324.75
  Q 444.24 332.16 437.25 335.71
  Q 432.88 336.05 428.50 336.02
  Q 349.16 335.53 269.81 335.81
  Q 269.60 335.81 268.75 336.29
  L 259.64 336.27
  A 0.67 0.64 -89.6 0 1 259.00 335.59
  Q 259.39 240.25 259.04 145.75
  Q 258.97 127.08 258.76 108.42
  Q 258.76 107.89 258.39 106.14
  Q 258.14 104.96 258.46 103.75
  Q 261.17 101.72 263.56 99.31
  Q 265.12 97.75 270.49 96.45
  Q 336.86 80.44 423.25 61.50
  Q 430.63 59.88 435.68 59.23
  Q 437.82 58.96 439.62 59.90
  Q 442.91 61.60 445.75 64.04
  Z
  M 273.73 167.19
  A 0.47 0.46 -3.9 0 0 274.25 167.64
  L 407.45 151.74
  A 0.59 0.59 -2.3 0 0 407.97 151.18
  L 408.25 138.06
  A 0.45 0.44 -2.9 0 0 407.75 137.62
  L 274.30 153.61
  A 0.91 0.88 -4.3 0 0 273.50 154.51
  L 273.73 167.19
  Z
  M 407.74 168.93
  L 274.05 184.01
  A 0.56 0.54 -4.5 0 0 273.55 184.57
  L 273.83 196.98
  A 0.94 0.91 -4.1 0 0 274.87 197.85
  L 407.46 182.91
  A 0.90 0.89 86.8 0 0 408.25 182.02
  L 408.25 169.39
  A 0.46 0.46 86.7 0 0 407.74 168.93
  Z
  M 408.07 211.56
  Q 408.39 206.54 408.22 200.57
  A 0.86 0.84 -3.7 0 0 407.27 199.75
  L 274.04 214.27
  A 0.61 0.58 -3.8 0 0 273.50 214.86
  L 273.78 227.69
  A 0.47 0.46 -3.4 0 0 274.30 228.14
  L 407.45 213.74
  A 0.59 0.58 88.9 0 0 407.97 213.19
  Q 408.02 212.38 408.07 211.56
  Z
  M 408.06 245.80
  Q 408.58 239.15 408.06 233.19
  A 1.06 1.05 -5.3 0 0 406.90 232.23
  L 274.39 245.81
  A 0.96 0.96 88.3 0 0 273.54 246.72
  Q 273.27 253.46 274.00 259.20
  A 0.50 0.50 83.6 0 0 274.55 259.64
  L 407.63 246.24
  A 0.48 0.48 -0.7 0 0 408.06 245.80
  Z
  M 277.58 289.51
  Q 338.31 283.81 399.00 277.79
  Q 402.74 277.42 407.58 277.20
  A 0.70 0.69 -1.3 0 0 408.25 276.51
  L 408.25 263.95
  A 0.77 0.76 -2.7 0 0 407.41 263.19
  L 274.07 275.77
  A 0.56 0.56 -1.7 0 0 273.55 276.32
  L 273.50 288.87
  A 0.57 0.56 2.8 0 0 274.01 289.43
  Q 276.18 289.64 277.58 289.51
  Z"
/>
<path fill="#f6cc6b" d="
  M 49.21 63.75
  Q 49.55 65.31 49.56 70.56
  Q 49.89 196.28 49.75 322.00
  Q 49.75 326.22 50.60 328.38
  Q 51.84 331.53 54.50 333.75
  Q 56.75 335.63 60.00 335.71
  Q 58.88 335.78 57.76 335.85
  Q 45.85 336.56 42.32 327.10
  Q 41.25 324.26 41.08 318.74
  Q 40.95 314.50 40.96 310.25
  Q 41.42 246.84 41.00 171.00
  Q 40.82 138.10 41.25 95.00
  Q 41.25 94.52 40.96 93.00
  Q 41.53 92.61 41.92 92.06
  Q 42.25 91.61 42.28 90.83
  Q 42.75 79.42 42.75 72.50
  Q 42.75 65.58 49.21 63.75
  Z"
/>
<path fill="#f5ce70" d="
  M 445.75 64.04
  Q 449.43 65.38 451.27 68.38
  Q 452.46 70.34 452.49 74.38
  Q 452.57 83.73 453.79 93.00
  L 453.70 93.17
  Q 453.56 93.43 453.56 93.51
  L 453.79 253.00
  Q 453.90 285.98 453.55 318.96
  Q 453.49 324.36 452.14 327.31
  Q 448.19 335.96 437.25 335.71
  Q 444.24 332.16 445.25 324.75
  Q 445.65 321.80 445.49 317.91
  Q 445.25 312.33 445.25 311.08
  Q 445.25 205.10 445.25 99.11
  Q 445.25 98.27 445.47 83.39
  Q 445.59 75.53 445.29 67.66
  Q 445.26 66.86 445.48 65.86
  Q 445.67 64.96 445.75 64.04
  Z"
/>
<path fill="#0a6752" d="
  M 40.96 93.00
  Q 41.25 94.52 41.25 95.00
  Q 40.82 138.10 41.00 171.00
  Q 41.42 246.84 40.96 310.25
  Q 37.58 319.57 41.06 328.61
  Q 41.66 330.16 43.06 331.43
  Q 44.37 332.62 45.67 333.82
  Q 49.41 337.28 54.82 337.78
  A 1.80 1.79 2.3 0 1 56.45 339.54
  Q 56.47 340.97 58.81 341.51
  Q 60.69 341.93 62.60 342.23
  Q 64.31 342.50 66.43 342.46
  Q 71.96 342.36 77.48 342.30
  Q 82.60 342.24 88.51 342.44
  Q 127.71 343.77 153.00 343.25
  Q 172.50 342.85 192.00 343.04
  Q 199.42 343.11 206.83 342.57
  Q 206.91 342.56 208.63 342.20
  Q 210.35 341.83 210.95 343.78
  Q 211.06 344.11 211.27 343.82
  Q 211.65 343.32 211.91 344.17
  Q 212.00 344.45 212.00 344.83
  Q 212.00 348.18 212.38 351.50
  Q 212.70 354.39 214.25 356.58
  Q 218.90 363.17 226.22 366.42
  Q 228.95 367.63 233.13 368.06
  Q 236.69 368.42 240.25 368.75
  Q 242.49 368.96 243.71 368.00
  Q 257.87 367.44 266.69 356.69
  Q 268.21 354.84 268.71 350.75
  L 269.29 344.25
  Q 269.87 344.14 269.93 343.50
  A 0.39 0.38 7.1 0 1 270.37 343.16
  Q 271.06 343.26 271.48 342.94
  A 1.45 0.47 -43.5 0 1 272.30 342.55
  Q 275.89 342.48 279.47 342.19
  Q 281.04 342.06 283.42 342.63
  Q 285.67 343.17 289.00 343.25
  Q 309.16 343.72 321.81 343.44
  Q 331.99 343.21 340.27 343.29
  Q 353.54 343.42 358.73 343.33
  Q 382.09 342.91 405.44 342.61
  Q 410.34 342.54 426.50 341.75
  Q 430.46 341.56 432.24 338.92
  A 1.32 1.11 -75.7 0 1 432.98 338.39
  Q 436.29 337.62 439.69 337.40
  Q 447.43 336.89 451.88 330.64
  Q 455.48 325.57 455.50 319.00
  Q 455.60 284.52 454.44 254.06
  Q 454.41 253.18 453.79 253.00
  L 453.56 93.51
  Q 453.56 93.43 453.70 93.17
  L 453.79 93.00
  Q 456.92 94.07 460.25 94.07
  Q 465.29 94.06 470.31 94.44
  Q 476.61 94.92 480.39 96.51
  Q 489.35 100.27 490.75 110.00
  Q 491.67 116.36 491.57 125.25
  Q 491.50 132.18 491.50 132.27
  Q 491.50 196.88 491.50 261.50
  Q 491.50 331.30 490.71 366.75
  Q 489.67 367.58 487.94 369.94
  Q 480.84 379.59 468.25 379.60
  Q 246.13 379.75 24.00 379.75
  Q 10.38 379.75 3.56 367.94
  Q 3.60 366.98 2.75 367.04
  Q 1.57 360.87 1.50 350.50
  Q 1.31 323.97 1.37 297.44
  Q 1.57 211.91 1.50 126.39
  Q 1.50 126.29 1.18 119.64
  Q 0.44 104.15 13.94 96.19
  Q 17.64 94.00 22.32 94.26
  Q 26.60 94.49 26.70 94.49
  Q 33.89 94.36 40.96 93.00
  Z"
/>
<path fill="#fac65f" d="
  M 258.46 103.75
  Q 258.14 104.96 258.39 106.14
  Q 258.76 107.89 258.76 108.42
  Q 258.97 127.08 259.04 145.75
  Q 259.39 240.25 259.00 335.59
  A 0.67 0.64 -89.6 0 0 259.64 336.27
  L 268.75 336.29
  L 269.29 344.25
  L 268.71 350.75
  Q 267.08 351.11 266.66 349.67
  Q 266.50 349.12 266.22 348.83
  Q 260.41 342.90 252.00 340.50
  Q 242.06 337.66 232.68 340.22
  Q 227.32 341.69 223.90 343.46
  Q 219.63 345.68 216.61 349.66
  Q 216.42 349.91 216.22 350.54
  Q 215.91 351.49 214.79 351.00
  Q 213.71 343.67 214.50 336.29
  L 223.36 336.27
  A 0.72 0.65 89.6 0 0 224.00 335.55
  Q 224.00 223.00 224.00 111.00
  Q 224.00 106.36 224.50 103.54
  Q 226.86 103.06 228.53 101.28
  Q 230.31 99.39 232.68 98.78
  Q 233.38 98.60 237.32 98.18
  Q 242.95 97.58 248.49 98.62
  Q 251.09 99.12 253.69 100.70
  Q 256.11 102.17 258.46 103.75
  Z"
/>
<path fill="#65be8e" d="
  M 209.50 153.51
  A 0.60 0.59 -85.5 0 1 210.00 154.10
  L 210.00 166.53
  A 0.82 0.82 4.2 0 1 209.06 167.34
  L 85.29 148.31
  A 0.93 0.93 -85.7 0 1 84.50 147.39
  L 84.50 134.79
  A 0.50 0.50 -86.0 0 1 85.07 134.29
  L 209.50 153.51
  Z"
/>
<path fill="#65be8e" d="
  M 273.73 167.19
  L 273.50 154.51
  A 0.91 0.88 -4.3 0 1 274.30 153.61
  L 407.75 137.62
  A 0.45 0.44 -2.9 0 1 408.25 138.06
  L 407.97 151.18
  A 0.59 0.59 -2.3 0 1 407.45 151.74
  L 274.25 167.64
  A 0.47 0.46 -3.9 0 1 273.73 167.19
  Z"
/>
<path fill="#65be8e" d="
  M 209.15 183.45
  A 0.99 0.98 4.7 0 1 209.99 184.43
  L 209.95 196.94
  A 0.45 0.44 4.0 0 1 209.44 197.37
  L 86.04 179.50
  A 1.73 1.70 4.1 0 1 84.55 177.81
  L 84.50 165.88
  A 0.58 0.58 4.3 0 1 85.17 165.31
  L 209.15 183.45
  Z"
/>
<path fill="#65be8e" d="
  M 407.74 168.93
  A 0.46 0.46 86.7 0 1 408.25 169.39
  L 408.25 182.02
  A 0.90 0.89 86.8 0 1 407.46 182.91
  L 274.87 197.85
  A 0.94 0.91 -4.1 0 1 273.83 196.98
  L 273.55 184.57
  A 0.56 0.54 -4.5 0 1 274.05 184.01
  L 407.74 168.93
  Z"
/>
<path fill="#65be8e" d="
  M 209.16 213.59
  A 0.98 0.98 -85.9 0 1 210.00 214.56
  L 210.00 227.00
  A 0.52 0.52 -86.2 0 1 209.41 227.52
  L 85.16 210.34
  A 0.77 0.76 -86.1 0 1 84.50 209.58
  L 84.50 197.08
  A 0.85 0.85 -86.1 0 1 85.46 196.24
  L 209.16 213.59
  Z"
/>
<path fill="#65be8e" d="
  M 408.07 211.56
  Q 408.02 212.38 407.97 213.19
  A 0.59 0.58 88.9 0 1 407.45 213.74
  L 274.30 228.14
  A 0.47 0.46 -3.4 0 1 273.78 227.69
  L 273.50 214.86
  A 0.61 0.58 -3.8 0 1 274.04 214.27
  L 407.27 199.75
  A 0.86 0.84 -3.7 0 1 408.22 200.57
  Q 408.39 206.54 408.07 211.56
  Z"
/>
<path fill="#65be8e" d="
  M 209.57 245.33
  A 0.79 0.75 -86.3 0 1 210.23 246.12
  L 210.02 258.30
  A 0.82 0.79 -86.0 0 1 209.12 259.11
  L 85.24 243.25
  A 0.78 0.74 4.3 0 1 84.56 242.50
  L 84.66 229.69
  A 0.47 0.45 4.5 0 1 85.19 229.25
  L 209.57 245.33
  Z"
/>
<path fill="#65be8e" d="
  M 408.06 245.80
  A 0.48 0.48 -0.7 0 1 407.63 246.24
  L 274.55 259.64
  A 0.50 0.50 83.6 0 1 274.00 259.20
  Q 273.27 253.46 273.54 246.72
  A 0.96 0.96 88.3 0 1 274.39 245.81
  L 406.90 232.23
  A 1.06 1.05 -5.3 0 1 408.06 233.19
  Q 408.58 239.15 408.06 245.80
  Z"
/>
<path fill="#0e5e4a" d="
  M 453.79 253.00
  Q 454.41 253.18 454.44 254.06
  Q 455.60 284.52 455.50 319.00
  Q 455.48 325.57 451.88 330.64
  Q 447.43 336.89 439.69 337.40
  Q 436.29 337.62 432.98 338.39
  A 1.32 1.11 -75.7 0 0 432.24 338.92
  Q 430.46 341.56 426.50 341.75
  Q 410.34 342.54 405.44 342.61
  Q 382.09 342.91 358.73 343.33
  Q 353.54 343.42 340.27 343.29
  Q 331.99 343.21 321.81 343.44
  Q 309.16 343.72 289.00 343.25
  Q 285.67 343.17 283.42 342.63
  Q 281.04 342.06 279.47 342.19
  Q 275.89 342.48 272.30 342.55
  A 1.45 0.47 -43.5 0 0 271.48 342.94
  Q 271.06 343.26 270.37 343.16
  A 0.39 0.38 7.1 0 0 269.93 343.50
  Q 269.87 344.14 269.29 344.25
  L 268.75 336.29
  Q 269.60 335.81 269.81 335.81
  Q 349.16 335.53 428.50 336.02
  Q 432.88 336.05 437.25 335.71
  Q 448.19 335.96 452.14 327.31
  Q 453.49 324.36 453.55 318.96
  Q 453.90 285.98 453.79 253.00
  Z"
/>
<path fill="#65be8e" d="
  M 85.64 274.10
  A 1.24 1.21 3.5 0 1 84.55 272.90
  L 84.50 260.40
  A 0.47 0.46 3.3 0 1 85.02 259.94
  L 209.44 275.25
  A 0.58 0.58 2.9 0 1 209.95 275.81
  L 209.99 287.93
  A 0.95 0.94 3.5 0 1 208.92 288.86
  L 85.64 274.10
  Z"
/>
<path fill="#65be8e" d="
  M 277.58 289.51
  Q 276.18 289.64 274.01 289.43
  A 0.57 0.56 2.8 0 1 273.50 288.87
  L 273.55 276.32
  A 0.56 0.56 -1.7 0 1 274.07 275.77
  L 407.41 263.19
  A 0.77 0.76 -2.7 0 1 408.25 263.95
  L 408.25 276.51
  A 0.70 0.69 -1.3 0 1 407.58 277.20
  Q 402.74 277.42 399.00 277.79
  Q 338.31 283.81 277.58 289.51
  Z"
/>
<path fill="#0e5e4a" d="
  M 40.96 310.25
  Q 40.95 314.50 41.08 318.74
  Q 41.25 324.26 42.32 327.10
  Q 45.85 336.56 57.76 335.85
  Q 58.88 335.78 60.00 335.71
  Q 136.91 335.65 213.81 336.00
  Q 214.02 336.00 214.18 336.08
  Q 214.34 336.17 214.50 336.29
  Q 213.71 343.67 214.79 351.00
  Q 216.28 358.22 222.94 362.31
  Q 232.71 368.31 243.71 368.00
  Q 242.49 368.96 240.25 368.75
  Q 236.69 368.42 233.13 368.06
  Q 228.95 367.63 226.22 366.42
  Q 218.90 363.17 214.25 356.58
  Q 212.70 354.39 212.38 351.50
  Q 212.00 348.18 212.00 344.83
  Q 212.00 344.45 211.91 344.17
  Q 211.65 343.32 211.27 343.82
  Q 211.06 344.11 210.95 343.78
  Q 210.35 341.83 208.63 342.20
  Q 206.91 342.56 206.83 342.57
  Q 199.42 343.11 192.00 343.04
  Q 172.50 342.85 153.00 343.25
  Q 127.71 343.77 88.51 342.44
  Q 82.60 342.24 77.48 342.30
  Q 71.96 342.36 66.43 342.46
  Q 64.31 342.50 62.60 342.23
  Q 60.69 341.93 58.81 341.51
  Q 56.47 340.97 56.45 339.54
  A 1.80 1.79 2.3 0 0 54.82 337.78
  Q 49.41 337.28 45.67 333.82
  Q 44.37 332.62 43.06 331.43
  Q 41.66 330.16 41.06 328.61
  Q 37.58 319.57 40.96 310.25
  Z"
/>
<path fill="#e3b153" d="
  M 268.71 350.75
  Q 268.21 354.84 266.69 356.69
  Q 257.87 367.44 243.71 368.00
  Q 232.71 368.31 222.94 362.31
  Q 216.28 358.22 214.79 351.00
  Q 215.91 351.49 216.22 350.54
  Q 216.42 349.91 216.61 349.66
  Q 219.63 345.68 223.90 343.46
  Q 227.32 341.69 232.68 340.22
  Q 242.06 337.66 252.00 340.50
  Q 260.41 342.90 266.22 348.83
  Q 266.50 349.12 266.66 349.67
  Q 267.08 351.11 268.71 350.75
  Z"
/>
<path fill="#54a281" d="
  M 490.71 366.75
  Q 490.72 369.20 491.00 370.25
  Q 495.26 386.52 483.19 396.44
  Q 477.24 401.32 469.50 402.35
  Q 468.37 402.50 454.99 402.50
  Q 302.12 402.50 149.25 402.50
  Q 93.07 402.50 60.53 402.15
  Q 45.75 401.99 45.58 401.99
  Q 38.11 401.69 30.69 400.53
  Q 25.47 399.71 21.31 396.87
  Q 19.08 395.35 13.84 390.45
  Q 8.70 385.63 6.31 381.19
  Q 3.69 376.30 2.75 367.04
  Q 3.60 366.98 3.56 367.94
  Q 10.38 379.75 24.00 379.75
  Q 246.13 379.75 468.25 379.60
  Q 480.84 379.59 487.94 369.94
  Q 489.67 367.58 490.71 366.75
  Z"
/>
</svg>
